<svg height="440" width="760"> <!-- 11h 15w -->
    <g id="catImage" transform="translate(-80, -240) scale(40)">

    <rect width="1" height="1" x="8" y="6" fill="hsl(40, 97%, 52%)"></rect><rect width="1" height="1" x="9" y="6" fill="hsl(40, 97%, 52%)"></rect><rect width="1" height="1" x="10" y="6" fill="hsl(40, 97%, 52%)"></rect><rect width="1" height="1" x="6" y="7" fill="hsl(40, 97%, 52%)"></rect><rect width="1" height="1" x="7" y="7" fill="hsl(40, 97%, 52%)"></rect><rect width="1" height="1" x="8" y="7" fill="hsl(44, 97%, 62%)"></rect><rect width="1" height="1" x="9" y="7" fill="hsl(44, 97%, 72%)"></rect><rect width="1" height="1" x="10" y="7" fill="hsl(44, 97%, 72%)"></rect><rect width="1" height="1" x="11" y="7" fill="hsl(40, 97%, 52%)"></rect><rect width="1" height="1" x="12" y="7" fill="hsl(40, 97%, 52%)"></rect><rect width="1" height="1" x="6" y="8" fill="hsl(40, 97%, 52%)"></rect><rect width="1" height="1" x="7" y="8" fill="hsl(44, 97%, 62%)"></rect><rect width="1" height="1" x="8" y="8" fill="hsl(44, 97%, 62%)"></rect><rect width="1" height="1" x="9" y="8" fill="hsl(44, 97%, 62%)"></rect><rect width="1" height="1" x="10" y="8" fill="hsl(44, 97%, 62%)"></rect><rect width="1" height="1" x="11" y="8" fill="hsl(44, 97%, 72%)"></rect><rect width="1" height="1" x="12" y="8" fill="hsl(40, 97%, 52%)"></rect><rect width="1" height="1" x="5" y="9" fill="hsl(40, 97%, 52%)"></rect><rect width="1" height="1" x="6" y="9" fill="hsl(0, 0%, 0%)"></rect><rect width="1" height="1" x="7" y="9" fill="hsl(10, 80%, 50%)"></rect><rect width="1" height="1" x="8" y="9" fill="hsl(10, 80%, 50%)"></rect><rect width="1" height="1" x="9" y="9" fill="hsl(10, 80%, 50%)"></rect><rect width="1" height="1" x="10" y="9" fill="hsl(10, 80%, 50%)"></rect><rect width="1" height="1" x="11" y="9" fill="hsl(10, 80%, 50%)"></rect><rect width="1" height="1" x="12" y="9" fill="hsl(0, 0%, 0%)"></rect><rect width="1" height="1" x="13" y="9" fill="hsl(40, 97%, 52%)"></rect><rect width="1" height="1" x="2" y="10" fill="hsl(40, 97%, 52%)"></rect><rect width="1" height="1" x="3" y="10" fill="hsl(40, 97%, 52%)"></rect><rect width="1" height="1" x="4" y="10" fill="hsl(40, 97%, 52%)"></rect><rect width="1" height="1" x="5" y="10" fill="hsl(0, 0%, 0%)"></rect><rect width="1" height="1" x="6" y="10" fill="hsl(341, 100%, 85%)"></rect><rect width="1" height="1" x="7" y="10" fill="hsl(0, 0%, 0%)"></rect><rect width="1" height="1" x="8" y="10" fill="hsl(40, 97%, 52%)"></rect><rect width="1" height="1" x="9" y="10" fill="hsl(40, 97%, 52%)"></rect><rect width="1" height="1" x="10" y="10" fill="hsl(40, 97%, 52%)"></rect><rect width="1" height="1" x="11" y="10" fill="hsl(0, 0%, 0%)"></rect><rect width="1" height="1" x="12" y="10" fill="hsl(341, 100%, 85%)"></rect><rect width="1" height="1" x="13" y="10" fill="hsl(0, 0%, 0%)"></rect><rect width="1" height="1" x="14" y="10" fill="hsl(40, 97%, 52%)"></rect><rect width="1" height="1" x="15" y="10" fill="hsl(40, 97%, 52%)"></rect><rect width="1" height="1" x="16" y="10" fill="hsl(40, 97%, 52%)"></rect><rect width="1" height="1" x="2" y="11" fill="hsl(40, 97%, 52%)"></rect><rect width="1" height="1" x="3" y="11" fill="hsl(44, 97%, 62%)"></rect><rect width="1" height="1" x="4" y="11" fill="hsl(44, 97%, 62%)"></rect><rect width="1" height="1" x="5" y="11" fill="hsl(44, 97%, 62%)"></rect><rect width="1" height="1" x="6" y="11" fill="hsl(44, 97%, 62%)"></rect><rect width="1" height="1" x="7" y="11" fill="hsl(44, 97%, 62%)"></rect><rect width="1" height="1" x="8" y="11" fill="hsl(44, 97%, 62%)"></rect><rect width="1" height="1" x="9" y="11" fill="hsl(44, 97%, 62%)"></rect><rect width="1" height="1" x="10" y="11" fill="hsl(44, 97%, 62%)"></rect><rect width="1" height="1" x="11" y="11" fill="hsl(44, 97%, 62%)"></rect><rect width="1" height="1" x="12" y="11" fill="hsl(44, 97%, 62%)"></rect><rect width="1" height="1" x="13" y="11" fill="hsl(44, 97%, 72%)"></rect><rect width="1" height="1" x="14" y="11" fill="hsl(44, 97%, 72%)"></rect><rect width="1" height="1" x="15" y="11" fill="hsl(44, 97%, 72%)"></rect><rect width="1" height="1" x="16" y="11" fill="hsl(40, 97%, 52%)"></rect><rect width="1" height="1" x="3" y="12" fill="hsl(40, 97%, 52%)"></rect><rect width="1" height="1" x="15" y="12" fill="hsl(40, 97%, 52%)"></rect>
    </g>
</svg>

