<svg height="320" width="80"> <!-- 16h 4w -->
    <g  transform="translate(0, 0) scale(20)">
    <rect width="1" height="1" x="1" y="0" fill="hsl(10, 75%, 40%)"></rect><rect width="1" height="1" x="2" y="0" fill="hsl(10, 75%, 40%)"></rect><rect width="1" height="1" x="0" y="1" fill="hsl(10, 75%, 40%)"></rect><rect width="1" height="1" x="1" y="1" fill="hsl(10, 75%, 50%)"></rect><rect width="1" height="1" x="2" y="1" fill="hsl(10, 75%, 50%)"></rect><rect width="1" height="1" x="3" y="1" fill="hsl(10, 75%, 40%)"></rect><rect width="1" height="1" x="0" y="2" fill="hsl(10, 75%, 40%)"></rect><rect width="1" height="1" x="1" y="2" fill="hsl(10, 75%, 50%)"></rect><rect width="1" height="1" x="2" y="2" fill="hsl(10, 75%, 50%)"></rect><rect width="1" height="1" x="3" y="2" fill="hsl(10, 75%, 40%)"></rect><rect width="1" height="1" x="0" y="3" fill="hsl(10, 75%, 40%)"></rect><rect width="1" height="1" x="1" y="3" fill="hsl(10, 75%, 50%)"></rect><rect width="1" height="1" x="2" y="3" fill="hsl(10, 75%, 50%)"></rect><rect width="1" height="1" x="3" y="3" fill="hsl(10, 75%, 40%)"></rect><rect width="1" height="1" x="0" y="4" fill="hsl(10, 75%, 40%)"></rect><rect width="1" height="1" x="1" y="4" fill="hsl(10, 75%, 50%)"></rect><rect width="1" height="1" x="2" y="4" fill="hsl(10, 75%, 50%)"></rect><rect width="1" height="1" x="3" y="4" fill="hsl(10, 75%, 40%)"></rect><rect width="1" height="1" x="0" y="5" fill="hsl(10, 75%, 40%)"></rect><rect width="1" height="1" x="1" y="5" fill="hsl(10, 75%, 50%)"></rect><rect width="1" height="1" x="2" y="5" fill="hsl(10, 75%, 50%)"></rect><rect width="1" height="1" x="3" y="5" fill="hsl(10, 75%, 40%)"></rect><rect width="1" height="1" x="0" y="6" fill="hsl(10, 75%, 40%)"></rect><rect width="1" height="1" x="1" y="6" fill="hsl(10, 75%, 50%)"></rect><rect width="1" height="1" x="2" y="6" fill="hsl(10, 75%, 50%)"></rect><rect width="1" height="1" x="3" y="6" fill="hsl(10, 75%, 40%)"></rect><rect width="1" height="1" x="0" y="7" fill="hsl(10, 75%, 40%)"></rect><rect width="1" height="1" x="1" y="7" fill="hsl(10, 75%, 50%)"></rect><rect width="1" height="1" x="2" y="7" fill="hsl(10, 75%, 50%)"></rect><rect width="1" height="1" x="3" y="7" fill="hsl(10, 75%, 40%)"></rect><rect width="1" height="1" x="0" y="8" fill="hsl(10, 75%, 40%)"></rect><rect width="1" height="1" x="1" y="8" fill="hsl(10, 75%, 50%)"></rect><rect width="1" height="1" x="2" y="8" fill="hsl(10, 75%, 50%)"></rect><rect width="1" height="1" x="3" y="8" fill="hsl(10, 75%, 40%)"></rect><rect width="1" height="1" x="0" y="9" fill="hsl(10, 75%, 40%)"></rect><rect width="1" height="1" x="1" y="9" fill="hsl(10, 75%, 50%)"></rect><rect width="1" height="1" x="2" y="9" fill="hsl(10, 75%, 50%)"></rect><rect width="1" height="1" x="3" y="9" fill="hsl(10, 75%, 40%)"></rect><rect width="1" height="1" x="1" y="10" fill="hsl(10, 75%, 40%)"></rect><rect width="1" height="1" x="2" y="10" fill="hsl(10, 75%, 40%)"></rect><rect width="1" height="1" x="1" y="12" fill="hsl(10, 75%, 40%)"></rect><rect width="1" height="1" x="2" y="12" fill="hsl(10, 75%, 40%)"></rect><rect width="1" height="1" x="0" y="13" fill="hsl(10, 75%, 40%)"></rect><rect width="1" height="1" x="1" y="13" fill="hsl(10, 75%, 50%)"></rect><rect width="1" height="1" x="2" y="13" fill="hsl(10, 75%, 50%)"></rect><rect width="1" height="1" x="3" y="13" fill="hsl(10, 75%, 40%)"></rect><rect width="1" height="1" x="0" y="14" fill="hsl(10, 75%, 40%)"></rect><rect width="1" height="1" x="1" y="14" fill="hsl(10, 75%, 50%)"></rect><rect width="1" height="1" x="2" y="14" fill="hsl(10, 75%, 50%)"></rect><rect width="1" height="1" x="3" y="14" fill="hsl(10, 75%, 40%)"></rect><rect width="1" height="1" x="1" y="15" fill="hsl(10, 75%, 40%)"></rect><rect width="1" height="1" x="2" y="15" fill="hsl(10, 75%, 40%)"></rect>

    </g>
</svg>

