<svg height="400" width="400"> <!-- 20x20 -->
    <g  transform="translate(0, 0) scale(20)">
    <rect width="1" height="1" x="8" y="0" fill="hsl(0, 0%, 0%)"></rect><rect width="1" height="1" x="9" y="0" fill="hsl(0, 0%, 0%)"></rect><rect width="1" height="1" x="10" y="0" fill="hsl(0, 0%, 0%)"></rect><rect width="1" height="1" x="11" y="0" fill="hsl(0, 0%, 0%)"></rect><rect width="1" height="1" x="5" y="1" fill="hsl(0, 0%, 0%)"></rect><rect width="1" height="1" x="6" y="1" fill="hsl(0, 0%, 0%)"></rect><rect width="1" height="1" x="7" y="1" fill="hsl(0, 0%, 0%)"></rect><rect width="1" height="1" x="12" y="1" fill="hsl(0, 0%, 0%)"></rect><rect width="1" height="1" x="13" y="1" fill="hsl(0, 0%, 0%)"></rect><rect width="1" height="1" x="14" y="1" fill="hsl(0, 0%, 0%)"></rect><rect width="1" height="1" x="4" y="2" fill="hsl(0, 0%, 0%)"></rect><rect width="1" height="1" x="15" y="2" fill="hsl(0, 0%, 0%)"></rect><rect width="1" height="1" x="3" y="3" fill="hsl(0, 0%, 0%)"></rect><rect width="1" height="1" x="16" y="3" fill="hsl(0, 0%, 0%)"></rect><rect width="1" height="1" x="2" y="4" fill="hsl(0, 0%, 0%)"></rect><rect width="1" height="1" x="9" y="4" fill="hsl(0, 0%, 0%)"></rect><rect width="1" height="1" x="10" y="4" fill="hsl(0, 0%, 0%)"></rect><rect width="1" height="1" x="17" y="4" fill="hsl(0, 0%, 0%)"></rect><rect width="1" height="1" x="1" y="5" fill="hsl(0, 0%, 0%)"></rect><rect width="1" height="1" x="9" y="5" fill="hsl(0, 0%, 0%)"></rect><rect width="1" height="1" x="10" y="5" fill="hsl(0, 0%, 0%)"></rect><rect width="1" height="1" x="18" y="5" fill="hsl(0, 0%, 0%)"></rect><rect width="1" height="1" x="1" y="6" fill="hsl(0, 0%, 0%)"></rect><rect width="1" height="1" x="18" y="6" fill="hsl(0, 0%, 0%)"></rect><rect width="1" height="1" x="1" y="7" fill="hsl(0, 0%, 0%)"></rect><rect width="1" height="1" x="8" y="7" fill="hsl(0, 0%, 0%)"></rect><rect width="1" height="1" x="9" y="7" fill="hsl(0, 0%, 0%)"></rect><rect width="1" height="1" x="10" y="7" fill="hsl(0, 0%, 0%)"></rect><rect width="1" height="1" x="18" y="7" fill="hsl(0, 0%, 0%)"></rect><rect width="1" height="1" x="0" y="8" fill="hsl(0, 0%, 0%)"></rect><rect width="1" height="1" x="8" y="8" fill="hsl(0, 0%, 0%)"></rect><rect width="1" height="1" x="9" y="8" fill="hsl(0, 0%, 0%)"></rect><rect width="1" height="1" x="10" y="8" fill="hsl(0, 0%, 0%)"></rect><rect width="1" height="1" x="19" y="8" fill="hsl(0, 0%, 0%)"></rect><rect width="1" height="1" x="0" y="9" fill="hsl(0, 0%, 0%)"></rect><rect width="1" height="1" x="9" y="9" fill="hsl(0, 0%, 0%)"></rect><rect width="1" height="1" x="10" y="9" fill="hsl(0, 0%, 0%)"></rect><rect width="1" height="1" x="19" y="9" fill="hsl(0, 0%, 0%)"></rect><rect width="1" height="1" x="0" y="10" fill="hsl(0, 0%, 0%)"></rect><rect width="1" height="1" x="9" y="10" fill="hsl(0, 0%, 0%)"></rect><rect width="1" height="1" x="10" y="10" fill="hsl(0, 0%, 0%)"></rect><rect width="1" height="1" x="19" y="10" fill="hsl(0, 0%, 0%)"></rect><rect width="1" height="1" x="0" y="11" fill="hsl(0, 0%, 0%)"></rect><rect width="1" height="1" x="9" y="11" fill="hsl(0, 0%, 0%)"></rect><rect width="1" height="1" x="10" y="11" fill="hsl(0, 0%, 0%)"></rect><rect width="1" height="1" x="19" y="11" fill="hsl(0, 0%, 0%)"></rect><rect width="1" height="1" x="1" y="12" fill="hsl(0, 0%, 0%)"></rect><rect width="1" height="1" x="9" y="12" fill="hsl(0, 0%, 0%)"></rect><rect width="1" height="1" x="10" y="12" fill="hsl(0, 0%, 0%)"></rect><rect width="1" height="1" x="18" y="12" fill="hsl(0, 0%, 0%)"></rect><rect width="1" height="1" x="1" y="13" fill="hsl(0, 0%, 0%)"></rect><rect width="1" height="1" x="9" y="13" fill="hsl(0, 0%, 0%)"></rect><rect width="1" height="1" x="10" y="13" fill="hsl(0, 0%, 0%)"></rect><rect width="1" height="1" x="18" y="13" fill="hsl(0, 0%, 0%)"></rect><rect width="1" height="1" x="1" y="14" fill="hsl(0, 0%, 0%)"></rect><rect width="1" height="1" x="9" y="14" fill="hsl(0, 0%, 0%)"></rect><rect width="1" height="1" x="10" y="14" fill="hsl(0, 0%, 0%)"></rect><rect width="1" height="1" x="11" y="14" fill="hsl(0, 0%, 0%)"></rect><rect width="1" height="1" x="18" y="14" fill="hsl(0, 0%, 0%)"></rect><rect width="1" height="1" x="2" y="15" fill="hsl(0, 0%, 0%)"></rect><rect width="1" height="1" x="9" y="15" fill="hsl(0, 0%, 0%)"></rect><rect width="1" height="1" x="10" y="15" fill="hsl(0, 0%, 0%)"></rect><rect width="1" height="1" x="11" y="15" fill="hsl(0, 0%, 0%)"></rect><rect width="1" height="1" x="17" y="15" fill="hsl(0, 0%, 0%)"></rect><rect width="1" height="1" x="3" y="16" fill="hsl(0, 0%, 0%)"></rect><rect width="1" height="1" x="16" y="16" fill="hsl(0, 0%, 0%)"></rect><rect width="1" height="1" x="4" y="17" fill="hsl(0, 0%, 0%)"></rect><rect width="1" height="1" x="15" y="17" fill="hsl(0, 0%, 0%)"></rect><rect width="1" height="1" x="5" y="18" fill="hsl(0, 0%, 0%)"></rect><rect width="1" height="1" x="6" y="18" fill="hsl(0, 0%, 0%)"></rect><rect width="1" height="1" x="7" y="18" fill="hsl(0, 0%, 0%)"></rect><rect width="1" height="1" x="12" y="18" fill="hsl(0, 0%, 0%)"></rect><rect width="1" height="1" x="13" y="18" fill="hsl(0, 0%, 0%)"></rect><rect width="1" height="1" x="14" y="18" fill="hsl(0, 0%, 0%)"></rect><rect width="1" height="1" x="8" y="19" fill="hsl(0, 0%, 0%)"></rect><rect width="1" height="1" x="9" y="19" fill="hsl(0, 0%, 0%)"></rect><rect width="1" height="1" x="10" y="19" fill="hsl(0, 0%, 0%)"></rect><rect width="1" height="1" x="11" y="19" fill="hsl(0, 0%, 0%)"></rect>

    </g>
</svg>

