<svg width="360" height="360"> <!-- 18x18 pixeli-->
<g transform="translate(0,-40) scale(20)">
<rect width="1" height="1" x="12" y="2" fill="hsl(0, 0%, 0%)"></rect><rect width="1" height="1" x="13" y="2" fill="hsl(0, 0%, 0%)"></rect><rect width="1" height="1" x="11" y="3" fill="hsl(0, 0%, 0%)"></rect><rect width="1" height="1" x="12" y="3" fill="hsl(40, 100%, 60%)"></rect><rect width="1" height="1" x="13" y="3" fill="hsl(40, 100%, 60%)"></rect><rect width="1" height="1" x="14" y="3" fill="hsl(0, 0%, 0%)"></rect><rect width="1" height="1" x="1" y="4" fill="hsl(40, 100%, 60%)"></rect><rect width="1" height="1" x="2" y="4" fill="hsl(30, 100%, 40%)"></rect><rect width="1" height="1" x="4" y="4" fill="hsl(30, 100%, 40%)"></rect><rect width="1" height="1" x="11" y="4" fill="hsl(0, 0%, 0%)"></rect><rect width="1" height="1" x="12" y="4" fill="hsl(40, 100%, 60%)"></rect><rect width="1" height="1" x="13" y="4" fill="hsl(40, 100%, 60%)"></rect><rect width="1" height="1" x="14" y="4" fill="hsl(30, 100%, 40%)"></rect><rect width="1" height="1" x="15" y="4" fill="hsl(0, 0%, 0%)"></rect><rect width="1" height="1" x="1" y="5" fill="hsl(30, 100%, 40%)"></rect><rect width="1" height="1" x="2" y="5" fill="hsl(30, 100%, 40%)"></rect><rect width="1" height="1" x="9" y="5" fill="hsl(0, 0%, 0%)"></rect><rect width="1" height="1" x="10" y="5" fill="hsl(0, 0%, 0%)"></rect><rect width="1" height="1" x="11" y="5" fill="hsl(0, 0%, 0%)"></rect><rect width="1" height="1" x="12" y="5" fill="hsl(40, 100%, 60%)"></rect><rect width="1" height="1" x="13" y="5" fill="hsl(30, 100%, 40%)"></rect><rect width="1" height="1" x="14" y="5" fill="hsl(40, 100%, 60%)"></rect><rect width="1" height="1" x="15" y="5" fill="hsl(30, 100%, 40%)"></rect><rect width="1" height="1" x="16" y="5" fill="hsl(0, 0%, 0%)"></rect><rect width="1" height="1" x="6" y="6" fill="hsl(0, 0%, 0%)"></rect><rect width="1" height="1" x="7" y="6" fill="hsl(0, 0%, 0%)"></rect><rect width="1" height="1" x="8" y="6" fill="hsl(0, 0%, 0%)"></rect><rect width="1" height="1" x="9" y="6" fill="hsl(30, 100%, 40%)"></rect><rect width="1" height="1" x="10" y="6" fill="hsl(40, 100%, 60%)"></rect><rect width="1" height="1" x="11" y="6" fill="hsl(40, 100%, 60%)"></rect><rect width="1" height="1" x="12" y="6" fill="hsl(40, 100%, 60%)"></rect><rect width="1" height="1" x="13" y="6" fill="hsl(40, 100%, 60%)"></rect><rect width="1" height="1" x="14" y="6" fill="hsl(30, 100%, 40%)"></rect><rect width="1" height="1" x="15" y="6" fill="hsl(40, 100%, 60%)"></rect><rect width="1" height="1" x="16" y="6" fill="hsl(30, 100%, 40%)"></rect><rect width="1" height="1" x="17" y="6" fill="hsl(0, 0%, 0%)"></rect><rect width="1" height="1" x="4" y="7" fill="hsl(0, 0%, 0%)"></rect><rect width="1" height="1" x="5" y="7" fill="hsl(0, 0%, 0%)"></rect><rect width="1" height="1" x="6" y="7" fill="hsl(30, 100%, 40%)"></rect><rect width="1" height="1" x="7" y="7" fill="hsl(30, 100%, 40%)"></rect><rect width="1" height="1" x="8" y="7" fill="hsl(40, 100%, 60%)"></rect><rect width="1" height="1" x="9" y="7" fill="hsl(40, 100%, 60%)"></rect><rect width="1" height="1" x="10" y="7" fill="hsl(30, 100%, 40%)"></rect><rect width="1" height="1" x="11" y="7" fill="hsl(40, 100%, 60%)"></rect><rect width="1" height="1" x="12" y="7" fill="hsl(40, 100%, 60%)"></rect><rect width="1" height="1" x="13" y="7" fill="hsl(30, 100%, 40%)"></rect><rect width="1" height="1" x="14" y="7" fill="hsl(30, 100%, 40%)"></rect><rect width="1" height="1" x="15" y="7" fill="hsl(30, 100%, 40%)"></rect><rect width="1" height="1" x="16" y="7" fill="hsl(30, 100%, 40%)"></rect><rect width="1" height="1" x="17" y="7" fill="hsl(0, 0%, 0%)"></rect><rect width="1" height="1" x="3" y="8" fill="hsl(0, 0%, 0%)"></rect><rect width="1" height="1" x="4" y="8" fill="hsl(30, 100%, 40%)"></rect><rect width="1" height="1" x="5" y="8" fill="hsl(30, 100%, 40%)"></rect><rect width="1" height="1" x="6" y="8" fill="hsl(40, 100%, 60%)"></rect><rect width="1" height="1" x="7" y="8" fill="hsl(40, 100%, 60%)"></rect><rect width="1" height="1" x="8" y="8" fill="hsl(30, 100%, 40%)"></rect><rect width="1" height="1" x="9" y="8" fill="hsl(40, 100%, 60%)"></rect><rect width="1" height="1" x="10" y="8" fill="hsl(30, 100%, 40%)"></rect><rect width="1" height="1" x="11" y="8" fill="hsl(30, 100%, 40%)"></rect><rect width="1" height="1" x="12" y="8" fill="hsl(40, 100%, 60%)"></rect><rect width="1" height="1" x="13" y="8" fill="hsl(30, 100%, 40%)"></rect><rect width="1" height="1" x="14" y="8" fill="hsl(0, 0%, 0%)"></rect><rect width="1" height="1" x="15" y="8" fill="hsl(0, 0%, 0%)"></rect><rect width="1" height="1" x="16" y="8" fill="hsl(0, 0%, 0%)"></rect><rect width="1" height="1" x="2" y="9" fill="hsl(0, 0%, 0%)"></rect><rect width="1" height="1" x="3" y="9" fill="hsl(40, 100%, 60%)"></rect><rect width="1" height="1" x="4" y="9" fill="hsl(40, 100%, 60%)"></rect><rect width="1" height="1" x="5" y="9" fill="hsl(40, 100%, 60%)"></rect><rect width="1" height="1" x="6" y="9" fill="hsl(30, 100%, 40%)"></rect><rect width="1" height="1" x="7" y="9" fill="hsl(40, 100%, 60%)"></rect><rect width="1" height="1" x="8" y="9" fill="hsl(30, 100%, 40%)"></rect><rect width="1" height="1" x="9" y="9" fill="hsl(30, 100%, 40%)"></rect><rect width="1" height="1" x="10" y="9" fill="hsl(40, 100%, 60%)"></rect><rect width="1" height="1" x="11" y="9" fill="hsl(40, 100%, 60%)"></rect><rect width="1" height="1" x="12" y="9" fill="hsl(30, 100%, 40%)"></rect><rect width="1" height="1" x="13" y="9" fill="hsl(30, 100%, 40%)"></rect><rect width="1" height="1" x="14" y="9" fill="hsl(0, 0%, 0%)"></rect><rect width="1" height="1" x="2" y="10" fill="hsl(0, 0%, 0%)"></rect><rect width="1" height="1" x="3" y="10" fill="hsl(30, 100%, 40%)"></rect><rect width="1" height="1" x="4" y="10" fill="hsl(30, 100%, 40%)"></rect><rect width="1" height="1" x="5" y="10" fill="hsl(40, 100%, 60%)"></rect><rect width="1" height="1" x="6" y="10" fill="hsl(30, 100%, 40%)"></rect><rect width="1" height="1" x="7" y="10" fill="hsl(30, 100%, 40%)"></rect><rect width="1" height="1" x="8" y="10" fill="hsl(40, 100%, 60%)"></rect><rect width="1" height="1" x="9" y="10" fill="hsl(40, 100%, 60%)"></rect><rect width="1" height="1" x="10" y="10" fill="hsl(30, 100%, 40%)"></rect><rect width="1" height="1" x="11" y="10" fill="hsl(40, 100%, 60%)"></rect><rect width="1" height="1" x="12" y="10" fill="hsl(30, 100%, 40%)"></rect><rect width="1" height="1" x="13" y="10" fill="hsl(30, 100%, 40%)"></rect><rect width="1" height="1" x="14" y="10" fill="hsl(0, 0%, 0%)"></rect><rect width="1" height="1" x="1" y="11" fill="hsl(0, 0%, 0%)"></rect><rect width="1" height="1" x="2" y="11" fill="hsl(40, 100%, 60%)"></rect><rect width="1" height="1" x="3" y="11" fill="hsl(40, 100%, 60%)"></rect><rect width="1" height="1" x="4" y="11" fill="hsl(40, 100%, 60%)"></rect><rect width="1" height="1" x="5" y="11" fill="hsl(30, 100%, 40%)"></rect><rect width="1" height="1" x="6" y="11" fill="hsl(40, 100%, 60%)"></rect><rect width="1" height="1" x="7" y="11" fill="hsl(40, 100%, 60%)"></rect><rect width="1" height="1" x="8" y="11" fill="hsl(30, 100%, 40%)"></rect><rect width="1" height="1" x="9" y="11" fill="hsl(40, 100%, 60%)"></rect><rect width="1" height="1" x="10" y="11" fill="hsl(40, 100%, 60%)"></rect><rect width="1" height="1" x="11" y="11" fill="hsl(40, 100%, 60%)"></rect><rect width="1" height="1" x="12" y="11" fill="hsl(30, 100%, 40%)"></rect><rect width="1" height="1" x="13" y="11" fill="hsl(0, 0%, 0%)"></rect><rect width="1" height="1" x="1" y="12" fill="hsl(0, 0%, 0%)"></rect><rect width="1" height="1" x="2" y="12" fill="hsl(40, 100%, 60%)"></rect><rect width="1" height="1" x="3" y="12" fill="hsl(40, 100%, 60%)"></rect><rect width="1" height="1" x="4" y="12" fill="hsl(40, 100%, 60%)"></rect><rect width="1" height="1" x="5" y="12" fill="hsl(30, 100%, 40%)"></rect><rect width="1" height="1" x="6" y="12" fill="hsl(40, 100%, 60%)"></rect><rect width="1" height="1" x="7" y="12" fill="hsl(40, 100%, 60%)"></rect><rect width="1" height="1" x="8" y="12" fill="hsl(30, 100%, 40%)"></rect><rect width="1" height="1" x="9" y="12" fill="hsl(40, 100%, 60%)"></rect><rect width="1" height="1" x="10" y="12" fill="hsl(40, 100%, 60%)"></rect><rect width="1" height="1" x="11" y="12" fill="hsl(40, 100%, 60%)"></rect><rect width="1" height="1" x="12" y="12" fill="hsl(30, 100%, 40%)"></rect><rect width="1" height="1" x="13" y="12" fill="hsl(0, 0%, 0%)"></rect><rect width="1" height="1" x="0" y="13" fill="hsl(0, 0%, 0%)"></rect><rect width="1" height="1" x="1" y="13" fill="hsl(40, 100%, 60%)"></rect><rect width="1" height="1" x="2" y="13" fill="hsl(40, 100%, 60%)"></rect><rect width="1" height="1" x="3" y="13" fill="hsl(30, 100%, 40%)"></rect><rect width="1" height="1" x="4" y="13" fill="hsl(40, 100%, 60%)"></rect><rect width="1" height="1" x="5" y="13" fill="hsl(40, 100%, 60%)"></rect><rect width="1" height="1" x="6" y="13" fill="hsl(40, 100%, 60%)"></rect><rect width="1" height="1" x="7" y="13" fill="hsl(40, 100%, 60%)"></rect><rect width="1" height="1" x="8" y="13" fill="hsl(40, 100%, 60%)"></rect><rect width="1" height="1" x="9" y="13" fill="hsl(40, 100%, 60%)"></rect><rect width="1" height="1" x="10" y="13" fill="hsl(40, 100%, 60%)"></rect><rect width="1" height="1" x="11" y="13" fill="hsl(30, 100%, 40%)"></rect><rect width="1" height="1" x="12" y="13" fill="hsl(30, 100%, 40%)"></rect><rect width="1" height="1" x="13" y="13" fill="hsl(0, 0%, 0%)"></rect><rect width="1" height="1" x="16" y="13" fill="hsl(30, 100%, 40%)"></rect><rect width="1" height="1" x="0" y="14" fill="hsl(0, 0%, 0%)"></rect><rect width="1" height="1" x="1" y="14" fill="hsl(40, 100%, 60%)"></rect><rect width="1" height="1" x="2" y="14" fill="hsl(30, 100%, 40%)"></rect><rect width="1" height="1" x="3" y="14" fill="hsl(40, 100%, 60%)"></rect><rect width="1" height="1" x="4" y="14" fill="hsl(30, 100%, 40%)"></rect><rect width="1" height="1" x="5" y="14" fill="hsl(40, 100%, 60%)"></rect><rect width="1" height="1" x="6" y="14" fill="hsl(40, 100%, 60%)"></rect><rect width="1" height="1" x="7" y="14" fill="hsl(30, 100%, 40%)"></rect><rect width="1" height="1" x="8" y="14" fill="hsl(30, 100%, 40%)"></rect><rect width="1" height="1" x="9" y="14" fill="hsl(30, 100%, 40%)"></rect><rect width="1" height="1" x="10" y="14" fill="hsl(30, 100%, 40%)"></rect><rect width="1" height="1" x="11" y="14" fill="hsl(30, 100%, 40%)"></rect><rect width="1" height="1" x="12" y="14" fill="hsl(0, 0%, 0%)"></rect><rect width="1" height="1" x="0" y="15" fill="hsl(0, 0%, 0%)"></rect><rect width="1" height="1" x="1" y="15" fill="hsl(40, 100%, 60%)"></rect><rect width="1" height="1" x="2" y="15" fill="hsl(40, 100%, 60%)"></rect><rect width="1" height="1" x="3" y="15" fill="hsl(30, 100%, 40%)"></rect><rect width="1" height="1" x="4" y="15" fill="hsl(40, 100%, 60%)"></rect><rect width="1" height="1" x="5" y="15" fill="hsl(40, 100%, 60%)"></rect><rect width="1" height="1" x="6" y="15" fill="hsl(30, 100%, 40%)"></rect><rect width="1" height="1" x="7" y="15" fill="hsl(40, 100%, 60%)"></rect><rect width="1" height="1" x="8" y="15" fill="hsl(40, 100%, 60%)"></rect><rect width="1" height="1" x="9" y="15" fill="hsl(40, 100%, 60%)"></rect><rect width="1" height="1" x="10" y="15" fill="hsl(30, 100%, 40%)"></rect><rect width="1" height="1" x="11" y="15" fill="hsl(30, 100%, 40%)"></rect><rect width="1" height="1" x="12" y="15" fill="hsl(0, 0%, 0%)"></rect><rect width="1" height="1" x="15" y="15" fill="hsl(30, 100%, 40%)"></rect><rect width="1" height="1" x="16" y="15" fill="hsl(30, 100%, 40%)"></rect><rect width="1" height="1" x="0" y="16" fill="hsl(0, 0%, 0%)"></rect><rect width="1" height="1" x="1" y="16" fill="hsl(40, 100%, 60%)"></rect><rect width="1" height="1" x="2" y="16" fill="hsl(40, 100%, 60%)"></rect><rect width="1" height="1" x="3" y="16" fill="hsl(40, 100%, 60%)"></rect><rect width="1" height="1" x="4" y="16" fill="hsl(40, 100%, 60%)"></rect><rect width="1" height="1" x="5" y="16" fill="hsl(40, 100%, 60%)"></rect><rect width="1" height="1" x="6" y="16" fill="hsl(30, 100%, 40%)"></rect><rect width="1" height="1" x="7" y="16" fill="hsl(40, 100%, 60%)"></rect><rect width="1" height="1" x="8" y="16" fill="hsl(40, 100%, 60%)"></rect><rect width="1" height="1" x="9" y="16" fill="hsl(30, 100%, 40%)"></rect><rect width="1" height="1" x="10" y="16" fill="hsl(30, 100%, 40%)"></rect><rect width="1" height="1" x="11" y="16" fill="hsl(0, 0%, 0%)"></rect><rect width="1" height="1" x="15" y="16" fill="hsl(30, 100%, 40%)"></rect><rect width="1" height="1" x="16" y="16" fill="hsl(30, 100%, 40%)"></rect><rect width="1" height="1" x="0" y="17" fill="hsl(0, 0%, 0%)"></rect><rect width="1" height="1" x="1" y="17" fill="hsl(30, 100%, 40%)"></rect><rect width="1" height="1" x="2" y="17" fill="hsl(40, 100%, 60%)"></rect><rect width="1" height="1" x="3" y="17" fill="hsl(40, 100%, 60%)"></rect><rect width="1" height="1" x="4" y="17" fill="hsl(40, 100%, 60%)"></rect><rect width="1" height="1" x="5" y="17" fill="hsl(30, 100%, 40%)"></rect><rect width="1" height="1" x="6" y="17" fill="hsl(30, 100%, 40%)"></rect><rect width="1" height="1" x="7" y="17" fill="hsl(30, 100%, 40%)"></rect><rect width="1" height="1" x="8" y="17" fill="hsl(30, 100%, 40%)"></rect><rect width="1" height="1" x="9" y="17" fill="hsl(0, 0%, 0%)"></rect><rect width="1" height="1" x="10" y="17" fill="hsl(0, 0%, 0%)"></rect><rect width="1" height="1" x="1" y="18" fill="hsl(0, 0%, 0%)"></rect><rect width="1" height="1" x="2" y="18" fill="hsl(30, 100%, 40%)"></rect><rect width="1" height="1" x="3" y="18" fill="hsl(30, 100%, 40%)"></rect><rect width="1" height="1" x="4" y="18" fill="hsl(30, 100%, 40%)"></rect><rect width="1" height="1" x="5" y="18" fill="hsl(30, 100%, 40%)"></rect><rect width="1" height="1" x="6" y="18" fill="hsl(30, 100%, 40%)"></rect><rect width="1" height="1" x="7" y="18" fill="hsl(0, 0%, 0%)"></rect><rect width="1" height="1" x="8" y="18" fill="hsl(0, 0%, 0%)"></rect><rect width="1" height="1" x="2" y="19" fill="hsl(0, 0%, 0%)"></rect><rect width="1" height="1" x="3" y="19" fill="hsl(0, 0%, 0%)"></rect><rect width="1" height="1" x="4" y="19" fill="hsl(0, 0%, 0%)"></rect><rect width="1" height="1" x="5" y="19" fill="hsl(0, 0%, 0%)"></rect><rect width="1" height="1" x="6" y="19" fill="hsl(0, 0%, 0%)"></rect></g>
</svg>