<svg height="900" width="960"> <!-- 15h x 16w pixeli "translate(-40,0) scale(20)" -->
<g id="enemyImage1" transform="translate(-120,0) scale(60)"><rect width="1" height="1" x="9" y="0" fill="hsl(70, 69%, 50%)"></rect><rect width="1" height="1" x="10" y="1" fill="hsl(0, 0%, 0%)"></rect><rect width="1" height="1" x="7" y="2" fill="hsl(0, 0%, 0%)"></rect><rect width="1" height="1" x="8" y="2" fill="hsl(0, 0%, 0%)"></rect><rect width="1" height="1" x="9" y="2" fill="hsl(0, 0%, 0%)"></rect><rect width="1" height="1" x="10" y="2" fill="hsl(0, 0%, 0%)"></rect><rect width="1" height="1" x="11" y="2" fill="hsl(0, 0%, 0%)"></rect><rect width="1" height="1" x="12" y="2" fill="hsl(0, 0%, 0%)"></rect><rect width="1" height="1" x="6" y="3" fill="hsl(0, 0%, 0%)"></rect><rect width="1" height="1" x="7" y="3" fill="hsl(70, 69%, 80%)"></rect><rect width="1" height="1" x="8" y="3" fill="hsl(70, 69%, 80%)"></rect><rect width="1" height="1" x="9" y="3" fill="hsl(70, 69%, 50%)"></rect><rect width="1" height="1" x="10" y="3" fill="hsl(0, 0%, 0%)"></rect><rect width="1" height="1" x="11" y="3" fill="hsl(70, 69%, 80%)"></rect><rect width="1" height="1" x="12" y="3" fill="hsl(70, 69%, 80%)"></rect><rect width="1" height="1" x="13" y="3" fill="hsl(0, 0%, 0%)"></rect><rect width="1" height="1" x="5" y="4" fill="hsl(0, 0%, 0%)"></rect><rect width="1" height="1" x="6" y="4" fill="hsl(70, 69%, 80%)"></rect><rect width="1" height="1" x="7" y="4" fill="hsl(70, 69%, 50%)"></rect><rect width="1" height="1" x="8" y="4" fill="hsl(105, 69%, 30%)"></rect><rect width="1" height="1" x="9" y="4" fill="hsl(105, 69%, 30%)"></rect><rect width="1" height="1" x="10" y="4" fill="hsl(0, 0%, 0%)"></rect><rect width="1" height="1" x="11" y="4" fill="hsl(0, 0%, 0%)"></rect><rect width="1" height="1" x="12" y="4" fill="hsl(70, 69%, 50%)"></rect><rect width="1" height="1" x="13" y="4" fill="hsl(70, 69%, 80%)"></rect><rect width="1" height="1" x="14" y="4" fill="hsl(0, 0%, 0%)"></rect><rect width="1" height="1" x="4" y="5" fill="hsl(0, 0%, 0%)"></rect><rect width="1" height="1" x="5" y="5" fill="hsl(105, 69%, 30%)"></rect><rect width="1" height="1" x="6" y="5" fill="hsl(70, 69%, 80%)"></rect><rect width="1" height="1" x="7" y="5" fill="hsl(70, 69%, 50%)"></rect><rect width="1" height="1" x="8" y="5" fill="hsl(105, 69%, 30%)"></rect><rect width="1" height="1" x="9" y="5" fill="hsl(105, 69%, 30%)"></rect><rect width="1" height="1" x="10" y="5" fill="hsl(105, 69%, 30%)"></rect><rect width="1" height="1" x="11" y="5" fill="hsl(105, 69%, 30%)"></rect><rect width="1" height="1" x="12" y="5" fill="hsl(70, 69%, 50%)"></rect><rect width="1" height="1" x="13" y="5" fill="hsl(70, 69%, 80%)"></rect><rect width="1" height="1" x="14" y="5" fill="hsl(105, 69%, 30%)"></rect><rect width="1" height="1" x="15" y="5" fill="hsl(0, 0%, 0%)"></rect><rect width="1" height="1" x="4" y="6" fill="hsl(0, 0%, 0%)"></rect><rect width="1" height="1" x="5" y="6" fill="hsl(70, 69%, 50%)"></rect><rect width="1" height="1" x="6" y="6" fill="hsl(70, 69%, 50%)"></rect><rect width="1" height="1" x="7" y="6" fill="hsl(70, 69%, 80%)"></rect><rect width="1" height="1" x="8" y="6" fill="hsl(70, 69%, 80%)"></rect><rect width="1" height="1" x="9" y="6" fill="hsl(70, 69%, 50%)"></rect><rect width="1" height="1" x="10" y="6" fill="hsl(70, 69%, 80%)"></rect><rect width="1" height="1" x="11" y="6" fill="hsl(70, 69%, 80%)"></rect><rect width="1" height="1" x="12" y="6" fill="hsl(70, 69%, 80%)"></rect><rect width="1" height="1" x="13" y="6" fill="hsl(70, 69%, 50%)"></rect><rect width="1" height="1" x="14" y="6" fill="hsl(70, 69%, 50%)"></rect><rect width="1" height="1" x="15" y="6" fill="hsl(0, 0%, 0%)"></rect><rect width="1" height="1" x="4" y="7" fill="hsl(0, 0%, 0%)"></rect><rect width="1" height="1" x="5" y="7" fill="hsl(70, 69%, 50%)"></rect><rect width="1" height="1" x="6" y="7" fill="hsl(70, 69%, 50%)"></rect><rect width="1" height="1" x="7" y="7" fill="hsl(70, 69%, 50%)"></rect><rect width="1" height="1" x="8" y="7" fill="hsl(70, 69%, 50%)"></rect><rect width="1" height="1" x="9" y="7" fill="hsl(70, 69%, 50%)"></rect><rect width="1" height="1" x="10" y="7" fill="hsl(70, 69%, 50%)"></rect><rect width="1" height="1" x="11" y="7" fill="hsl(70, 69%, 50%)"></rect><rect width="1" height="1" x="12" y="7" fill="hsl(70, 69%, 50%)"></rect><rect width="1" height="1" x="13" y="7" fill="hsl(70, 69%, 50%)"></rect><rect width="1" height="1" x="14" y="7" fill="hsl(70, 69%, 50%)"></rect><rect width="1" height="1" x="15" y="7" fill="hsl(0, 0%, 0%)"></rect><rect width="1" height="1" x="3" y="8" fill="hsl(0, 0%, 0%)"></rect><rect width="1" height="1" x="4" y="8" fill="hsl(0, 0%, 0%)"></rect><rect width="1" height="1" x="5" y="8" fill="hsl(70, 69%, 50%)"></rect><rect width="1" height="1" x="6" y="8" fill="hsl(70, 69%, 50%)"></rect><rect width="1" height="1" x="7" y="8" fill="hsl(70, 69%, 50%)"></rect><rect width="1" height="1" x="8" y="8" fill="hsl(70, 69%, 50%)"></rect><rect width="1" height="1" x="9" y="8" fill="hsl(70, 69%, 50%)"></rect><rect width="1" height="1" x="10" y="8" fill="hsl(70, 69%, 50%)"></rect><rect width="1" height="1" x="11" y="8" fill="hsl(70, 69%, 50%)"></rect><rect width="1" height="1" x="12" y="8" fill="hsl(70, 69%, 50%)"></rect><rect width="1" height="1" x="13" y="8" fill="hsl(70, 69%, 50%)"></rect><rect width="1" height="1" x="14" y="8" fill="hsl(70, 69%, 50%)"></rect><rect width="1" height="1" x="15" y="8" fill="hsl(0, 0%, 0%)"></rect><rect width="1" height="1" x="16" y="8" fill="hsl(0, 0%, 0%)"></rect><rect width="1" height="1" x="2" y="9" fill="hsl(0, 0%, 0%)"></rect><rect width="1" height="1" x="4" y="9" fill="hsl(0, 0%, 0%)"></rect><rect width="1" height="1" x="5" y="9" fill="hsl(70, 69%, 50%)"></rect><rect width="1" height="1" x="6" y="9" fill="hsl(70, 69%, 50%)"></rect><rect width="1" height="1" x="7" y="9" fill="hsl(0, 0%, 0%)"></rect><rect width="1" height="1" x="8" y="9" fill="hsl(70, 69%, 50%)"></rect><rect width="1" height="1" x="9" y="9" fill="hsl(70, 69%, 50%)"></rect><rect width="1" height="1" x="10" y="9" fill="hsl(70, 69%, 50%)"></rect><rect width="1" height="1" x="11" y="9" fill="hsl(70, 69%, 50%)"></rect><rect width="1" height="1" x="12" y="9" fill="hsl(0, 0%, 0%)"></rect><rect width="1" height="1" x="13" y="9" fill="hsl(70, 69%, 50%)"></rect><rect width="1" height="1" x="14" y="9" fill="hsl(70, 69%, 50%)"></rect><rect width="1" height="1" x="15" y="9" fill="hsl(0, 0%, 0%)"></rect><rect width="1" height="1" x="17" y="9" fill="hsl(0, 0%, 0%)"></rect><rect width="1" height="1" x="4" y="10" fill="hsl(0, 0%, 0%)"></rect><rect width="1" height="1" x="5" y="10" fill="hsl(105, 69%, 30%)"></rect><rect width="1" height="1" x="6" y="10" fill="hsl(341, 100%, 85%)"></rect><rect width="1" height="1" x="7" y="10" fill="hsl(341, 100%, 85%)"></rect><rect width="1" height="1" x="8" y="10" fill="hsl(70, 69%, 50%)"></rect><rect width="1" height="1" x="9" y="10" fill="hsl(70, 69%, 50%)"></rect><rect width="1" height="1" x="10" y="10" fill="hsl(70, 69%, 50%)"></rect><rect width="1" height="1" x="11" y="10" fill="hsl(70, 69%, 50%)"></rect><rect width="1" height="1" x="12" y="10" fill="hsl(341, 100%, 85%)"></rect><rect width="1" height="1" x="13" y="10" fill="hsl(341, 100%, 85%)"></rect><rect width="1" height="1" x="14" y="10" fill="hsl(105, 69%, 30%)"></rect><rect width="1" height="1" x="15" y="10" fill="hsl(0, 0%, 0%)"></rect><rect width="1" height="1" x="5" y="11" fill="hsl(0, 0%, 0%)"></rect><rect width="1" height="1" x="6" y="11" fill="hsl(105, 69%, 30%)"></rect><rect width="1" height="1" x="7" y="11" fill="hsl(70, 69%, 50%)"></rect><rect width="1" height="1" x="8" y="11" fill="hsl(70, 69%, 50%)"></rect><rect width="1" height="1" x="9" y="11" fill="hsl(70, 69%, 50%)"></rect><rect width="1" height="1" x="10" y="11" fill="hsl(70, 69%, 50%)"></rect><rect width="1" height="1" x="11" y="11" fill="hsl(70, 69%, 50%)"></rect><rect width="1" height="1" x="12" y="11" fill="hsl(70, 69%, 50%)"></rect><rect width="1" height="1" x="13" y="11" fill="hsl(105, 69%, 30%)"></rect><rect width="1" height="1" x="14" y="11" fill="hsl(0, 0%, 0%)"></rect><rect width="1" height="1" x="6" y="12" fill="hsl(0, 0%, 0%)"></rect><rect width="1" height="1" x="7" y="12" fill="hsl(0, 0%, 0%)"></rect><rect width="1" height="1" x="8" y="12" fill="hsl(0, 0%, 0%)"></rect><rect width="1" height="1" x="9" y="12" fill="hsl(0, 0%, 0%)"></rect><rect width="1" height="1" x="10" y="12" fill="hsl(0, 0%, 0%)"></rect><rect width="1" height="1" x="11" y="12" fill="hsl(0, 0%, 0%)"></rect><rect width="1" height="1" x="12" y="12" fill="hsl(0, 0%, 0%)"></rect><rect width="1" height="1" x="13" y="12" fill="hsl(0, 0%, 0%)"></rect><rect width="1" height="1" x="6" y="13" fill="hsl(0, 0%, 0%)"></rect><rect width="1" height="1" x="13" y="13" fill="hsl(0, 0%, 0%)"></rect><rect width="1" height="1" x="5" y="14" fill="hsl(0, 0%, 0%)"></rect><rect width="1" height="1" x="6" y="14" fill="hsl(0, 0%, 0%)"></rect><rect width="1" height="1" x="13" y="14" fill="hsl(0, 0%, 0%)"></rect><rect width="1" height="1" x="14" y="14" fill="hsl(0, 0%, 0%)"></rect></g>
</svg>

