<svg width="800" height="800"> <!-- 18x18 pixeli og  600 300-->
<g transform="translate(0, 400) scale(20) rotate(-45)">

<!--
    <rect width="1" height="1" x="15" y="0" fill="hsl(0, 0%, 0%)"></rect><rect width="1" height="1" x="14" y="1" fill="hsl(0, 0%, 0%)"></rect><rect width="1" height="1" x="15" y="1" fill="hsl(0, 0%, 90%)"></rect><rect width="1" height="1" x="16" y="1" fill="hsl(0, 0%, 0%)"></rect><rect width="1" height="1" x="11" y="2" fill="hsl(0, 0%, 0%)"></rect><rect width="1" height="1" x="14" y="2" fill="hsl(0, 0%, 0%)"></rect><rect width="1" height="1" x="15" y="2" fill="hsl(0, 0%, 90%)"></rect><rect width="1" height="1" x="16" y="2" fill="hsl(0, 0%, 0%)"></rect><rect width="1" height="1" x="19" y="2" fill="hsl(0, 0%, 0%)"></rect><rect width="1" height="1" x="5" y="3" fill="hsl(0, 0%, 0%)"></rect><rect width="1" height="1" x="6" y="3" fill="hsl(0, 0%, 0%)"></rect><rect width="1" height="1" x="7" y="3" fill="hsl(0, 0%, 0%)"></rect><rect width="1" height="1" x="10" y="3" fill="hsl(0, 0%, 0%)"></rect><rect width="1" height="1" x="11" y="3" fill="hsl(0, 0%, 90%)"></rect><rect width="1" height="1" x="12" y="3" fill="hsl(0, 0%, 0%)"></rect><rect width="1" height="1" x="14" y="3" fill="hsl(0, 0%, 0%)"></rect><rect width="1" height="1" x="15" y="3" fill="hsl(0, 0%, 90%)"></rect><rect width="1" height="1" x="16" y="3" fill="hsl(0, 0%, 0%)"></rect><rect width="1" height="1" x="18" y="3" fill="hsl(0, 0%, 0%)"></rect><rect width="1" height="1" x="19" y="3" fill="hsl(0, 0%, 90%)"></rect><rect width="1" height="1" x="3" y="4" fill="hsl(0, 0%, 0%)"></rect><rect width="1" height="1" x="4" y="4" fill="hsl(0, 0%, 0%)"></rect><rect width="1" height="1" x="5" y="4" fill="hsl(0, 0%, 100%)"></rect><rect width="1" height="1" x="6" y="4" fill="hsl(0, 0%, 100%)"></rect><rect width="1" height="1" x="7" y="4" fill="hsl(0, 0%, 100%)"></rect><rect width="1" height="1" x="8" y="4" fill="hsl(0, 0%, 0%)"></rect><rect width="1" height="1" x="10" y="4" fill="hsl(0, 0%, 0%)"></rect><rect width="1" height="1" x="11" y="4" fill="hsl(0, 0%, 90%)"></rect><rect width="1" height="1" x="12" y="4" fill="hsl(0, 0%, 0%)"></rect><rect width="1" height="1" x="14" y="4" fill="hsl(0, 0%, 0%)"></rect><rect width="1" height="1" x="15" y="4" fill="hsl(0, 0%, 100%)"></rect><rect width="1" height="1" x="16" y="4" fill="hsl(0, 0%, 0%)"></rect><rect width="1" height="1" x="18" y="4" fill="hsl(0, 0%, 0%)"></rect><rect width="1" height="1" x="19" y="4" fill="hsl(0, 0%, 90%)"></rect><rect width="1" height="1" x="1" y="5" fill="hsl(0, 0%, 0%)"></rect><rect width="1" height="1" x="2" y="5" fill="hsl(0, 0%, 0%)"></rect><rect width="1" height="1" x="3" y="5" fill="hsl(0, 0%, 100%)"></rect><rect width="1" height="1" x="4" y="5" fill="hsl(0, 0%, 100%)"></rect><rect width="1" height="1" x="5" y="5" fill="hsl(0, 0%, 100%)"></rect><rect width="1" height="1" x="6" y="5" fill="hsl(0, 0%, 100%)"></rect><rect width="1" height="1" x="7" y="5" fill="hsl(0, 0%, 100%)"></rect><rect width="1" height="1" x="8" y="5" fill="hsl(0, 0%, 0%)"></rect><rect width="1" height="1" x="10" y="5" fill="hsl(0, 0%, 0%)"></rect><rect width="1" height="1" x="11" y="5" fill="hsl(0, 0%, 100%)"></rect><rect width="1" height="1" x="12" y="5" fill="hsl(0, 0%, 0%)"></rect><rect width="1" height="1" x="14" y="5" fill="hsl(0, 0%, 0%)"></rect><rect width="1" height="1" x="15" y="5" fill="hsl(0, 0%, 100%)"></rect><rect width="1" height="1" x="16" y="5" fill="hsl(0, 0%, 0%)"></rect><rect width="1" height="1" x="18" y="5" fill="hsl(0, 0%, 0%)"></rect><rect width="1" height="1" x="19" y="5" fill="hsl(0, 0%, 100%)"></rect><rect width="1" height="1" x="0" y="6" fill="hsl(0, 0%, 0%)"></rect><rect width="1" height="1" x="1" y="6" fill="hsl(0, 0%, 100%)"></rect><rect width="1" height="1" x="2" y="6" fill="hsl(0, 0%, 100%)"></rect><rect width="1" height="1" x="3" y="6" fill="hsl(0, 0%, 100%)"></rect><rect width="1" height="1" x="4" y="6" fill="hsl(0, 0%, 0%)"></rect><rect width="1" height="1" x="5" y="6" fill="hsl(0, 0%, 0%)"></rect><rect width="1" height="1" x="6" y="6" fill="hsl(0, 0%, 0%)"></rect><rect width="1" height="1" x="7" y="6" fill="hsl(0, 0%, 100%)"></rect><rect width="1" height="1" x="8" y="6" fill="hsl(0, 0%, 0%)"></rect><rect width="1" height="1" x="9" y="6" fill="hsl(0, 0%, 0%)"></rect><rect width="1" height="1" x="10" y="6" fill="hsl(0, 0%, 100%)"></rect><rect width="1" height="1" x="11" y="6" fill="hsl(0, 0%, 100%)"></rect><rect width="1" height="1" x="12" y="6" fill="hsl(0, 0%, 100%)"></rect><rect width="1" height="1" x="13" y="6" fill="hsl(0, 0%, 0%)"></rect><rect width="1" height="1" x="14" y="6" fill="hsl(0, 0%, 100%)"></rect><rect width="1" height="1" x="15" y="6" fill="hsl(0, 0%, 100%)"></rect><rect width="1" height="1" x="16" y="6" fill="hsl(0, 0%, 100%)"></rect><rect width="1" height="1" x="17" y="6" fill="hsl(0, 0%, 0%)"></rect><rect width="1" height="1" x="18" y="6" fill="hsl(0, 0%, 100%)"></rect><rect width="1" height="1" x="19" y="6" fill="hsl(0, 0%, 100%)"></rect><rect width="1" height="1" x="0" y="7" fill="hsl(0, 0%, 0%)"></rect><rect width="1" height="1" x="1" y="7" fill="hsl(0, 0%, 90%)"></rect><rect width="1" height="1" x="2" y="7" fill="hsl(0, 0%, 100%)"></rect><rect width="1" height="1" x="3" y="7" fill="hsl(0, 0%, 100%)"></rect><rect width="1" height="1" x="4" y="7" fill="hsl(0, 0%, 0%)"></rect><rect width="1" height="1" x="5" y="7" fill="hsl(0, 0%, 0%)"></rect><rect width="1" height="1" x="6" y="7" fill="hsl(0, 0%, 100%)"></rect><rect width="1" height="1" x="7" y="7" fill="hsl(0, 0%, 100%)"></rect><rect width="1" height="1" x="8" y="7" fill="hsl(0, 0%, 0%)"></rect><rect width="1" height="1" x="9" y="7" fill="hsl(0, 0%, 100%)"></rect><rect width="1" height="1" x="10" y="7" fill="hsl(0, 0%, 90%)"></rect><rect width="1" height="1" x="11" y="7" fill="hsl(0, 0%, 90%)"></rect><rect width="1" height="1" x="12" y="7" fill="hsl(0, 0%, 90%)"></rect><rect width="1" height="1" x="13" y="7" fill="hsl(0, 0%, 90%)"></rect><rect width="1" height="1" x="14" y="7" fill="hsl(0, 0%, 90%)"></rect><rect width="1" height="1" x="15" y="7" fill="hsl(0, 0%, 90%)"></rect><rect width="1" height="1" x="16" y="7" fill="hsl(0, 0%, 90%)"></rect><rect width="1" height="1" x="17" y="7" fill="hsl(0, 0%, 90%)"></rect><rect width="1" height="1" x="18" y="7" fill="hsl(0, 0%, 90%)"></rect><rect width="1" height="1" x="19" y="7" fill="hsl(0, 0%, 90%)"></rect><rect width="1" height="1" x="1" y="8" fill="hsl(0, 0%, 0%)"></rect><rect width="1" height="1" x="2" y="8" fill="hsl(0, 0%, 90%)"></rect><rect width="1" height="1" x="3" y="8" fill="hsl(0, 0%, 100%)"></rect><rect width="1" height="1" x="4" y="8" fill="hsl(0, 0%, 100%)"></rect><rect width="1" height="1" x="5" y="8" fill="hsl(0, 0%, 100%)"></rect><rect width="1" height="1" x="6" y="8" fill="hsl(0, 0%, 100%)"></rect><rect width="1" height="1" x="7" y="8" fill="hsl(0, 0%, 100%)"></rect><rect width="1" height="1" x="8" y="8" fill="hsl(0, 0%, 0%)"></rect><rect width="1" height="1" x="9" y="8" fill="hsl(0, 0%, 0%)"></rect><rect width="1" height="1" x="10" y="8" fill="hsl(0, 0%, 100%)"></rect><rect width="1" height="1" x="11" y="8" fill="hsl(0, 0%, 100%)"></rect><rect width="1" height="1" x="12" y="8" fill="hsl(0, 0%, 100%)"></rect><rect width="1" height="1" x="13" y="8" fill="hsl(0, 0%, 0%)"></rect><rect width="1" height="1" x="14" y="8" fill="hsl(0, 0%, 100%)"></rect><rect width="1" height="1" x="15" y="8" fill="hsl(0, 0%, 100%)"></rect><rect width="1" height="1" x="16" y="8" fill="hsl(0, 0%, 100%)"></rect><rect width="1" height="1" x="17" y="8" fill="hsl(0, 0%, 0%)"></rect><rect width="1" height="1" x="18" y="8" fill="hsl(0, 0%, 100%)"></rect><rect width="1" height="1" x="19" y="8" fill="hsl(0, 0%, 100%)"></rect><rect width="1" height="1" x="2" y="9" fill="hsl(0, 0%, 0%)"></rect><rect width="1" height="1" x="3" y="9" fill="hsl(0, 0%, 90%)"></rect><rect width="1" height="1" x="4" y="9" fill="hsl(0, 0%, 90%)"></rect><rect width="1" height="1" x="5" y="9" fill="hsl(0, 0%, 100%)"></rect><rect width="1" height="1" x="6" y="9" fill="hsl(0, 0%, 100%)"></rect><rect width="1" height="1" x="7" y="9" fill="hsl(0, 0%, 100%)"></rect><rect width="1" height="1" x="8" y="9" fill="hsl(0, 0%, 0%)"></rect><rect width="1" height="1" x="10" y="9" fill="hsl(0, 0%, 0%)"></rect><rect width="1" height="1" x="11" y="9" fill="hsl(0, 0%, 100%)"></rect><rect width="1" height="1" x="12" y="9" fill="hsl(0, 0%, 0%)"></rect><rect width="1" height="1" x="14" y="9" fill="hsl(0, 0%, 0%)"></rect><rect width="1" height="1" x="15" y="9" fill="hsl(0, 0%, 100%)"></rect><rect width="1" height="1" x="16" y="9" fill="hsl(0, 0%, 0%)"></rect><rect width="1" height="1" x="18" y="9" fill="hsl(0, 0%, 0%)"></rect><rect width="1" height="1" x="19" y="9" fill="hsl(0, 0%, 100%)"></rect><rect width="1" height="1" x="3" y="10" fill="hsl(0, 0%, 0%)"></rect><rect width="1" height="1" x="4" y="10" fill="hsl(0, 0%, 0%)"></rect><rect width="1" height="1" x="5" y="10" fill="hsl(0, 0%, 90%)"></rect><rect width="1" height="1" x="6" y="10" fill="hsl(0, 0%, 90%)"></rect><rect width="1" height="1" x="7" y="10" fill="hsl(0, 0%, 90%)"></rect><rect width="1" height="1" x="8" y="10" fill="hsl(0, 0%, 0%)"></rect><rect width="1" height="1" x="10" y="10" fill="hsl(0, 0%, 0%)"></rect><rect width="1" height="1" x="11" y="10" fill="hsl(0, 0%, 90%)"></rect><rect width="1" height="1" x="12" y="10" fill="hsl(0, 0%, 0%)"></rect><rect width="1" height="1" x="14" y="10" fill="hsl(0, 0%, 0%)"></rect><rect width="1" height="1" x="15" y="10" fill="hsl(0, 0%, 100%)"></rect><rect width="1" height="1" x="16" y="10" fill="hsl(0, 0%, 0%)"></rect><rect width="1" height="1" x="18" y="10" fill="hsl(0, 0%, 0%)"></rect><rect width="1" height="1" x="19" y="10" fill="hsl(0, 0%, 90%)"></rect><rect width="1" height="1" x="5" y="11" fill="hsl(0, 0%, 0%)"></rect><rect width="1" height="1" x="6" y="11" fill="hsl(0, 0%, 0%)"></rect><rect width="1" height="1" x="7" y="11" fill="hsl(0, 0%, 0%)"></rect><rect width="1" height="1" x="10" y="11" fill="hsl(0, 0%, 0%)"></rect><rect width="1" height="1" x="11" y="11" fill="hsl(0, 0%, 90%)"></rect><rect width="1" height="1" x="12" y="11" fill="hsl(0, 0%, 0%)"></rect><rect width="1" height="1" x="14" y="11" fill="hsl(0, 0%, 0%)"></rect><rect width="1" height="1" x="15" y="11" fill="hsl(0, 0%, 90%)"></rect><rect width="1" height="1" x="16" y="11" fill="hsl(0, 0%, 0%)"></rect><rect width="1" height="1" x="18" y="11" fill="hsl(0, 0%, 0%)"></rect><rect width="1" height="1" x="19" y="11" fill="hsl(0, 0%, 90%)"></rect><rect width="1" height="1" x="11" y="12" fill="hsl(0, 0%, 0%)"></rect><rect width="1" height="1" x="14" y="12" fill="hsl(0, 0%, 0%)"></rect><rect width="1" height="1" x="15" y="12" fill="hsl(0, 0%, 90%)"></rect><rect width="1" height="1" x="16" y="12" fill="hsl(0, 0%, 0%)"></rect><rect width="1" height="1" x="19" y="12" fill="hsl(0, 0%, 0%)"></rect><rect width="1" height="1" x="14" y="13" fill="hsl(0, 0%, 0%)"></rect><rect width="1" height="1" x="15" y="13" fill="hsl(0, 0%, 90%)"></rect><rect width="1" height="1" x="16" y="13" fill="hsl(0, 0%, 0%)"></rect><rect width="1" height="1" x="15" y="14" fill="hsl(0, 0%, 0%)"></rect>

    <rect width="1" height="1" x="25" y="2" fill="hsl(0, 0%, 0%)"></rect><rect width="1" height="1" x="26" y="2" fill="hsl(0, 0%, 0%)"></rect><rect width="1" height="1" x="27" y="2" fill="hsl(0, 0%, 0%)"></rect><rect width="1" height="1" x="20" y="3" fill="hsl(0, 0%, 0%)"></rect><rect width="1" height="1" x="24" y="3" fill="hsl(0, 0%, 0%)"></rect><rect width="1" height="1" x="25" y="3" fill="hsl(0, 0%, 100%)"></rect><rect width="1" height="1" x="26" y="3" fill="hsl(0, 0%, 100%)"></rect><rect width="1" height="1" x="27" y="3" fill="hsl(0, 0%, 100%)"></rect><rect width="1" height="1" x="28" y="3" fill="hsl(0, 0%, 0%)"></rect><rect width="1" height="1" x="20" y="4" fill="hsl(0, 0%, 0%)"></rect><rect width="1" height="1" x="23" y="4" fill="hsl(0, 0%, 0%)"></rect><rect width="1" height="1" x="24" y="4" fill="hsl(0, 0%, 100%)"></rect><rect width="1" height="1" x="25" y="4" fill="hsl(0, 0%, 100%)"></rect><rect width="1" height="1" x="26" y="4" fill="hsl(0, 0%, 100%)"></rect><rect width="1" height="1" x="27" y="4" fill="hsl(0, 0%, 100%)"></rect><rect width="1" height="1" x="28" y="4" fill="hsl(0, 0%, 0%)"></rect><rect width="1" height="1" x="20" y="5" fill="hsl(0, 0%, 0%)"></rect><rect width="1" height="1" x="22" y="5" fill="hsl(0, 0%, 0%)"></rect><rect width="1" height="1" x="23" y="5" fill="hsl(0, 0%, 100%)"></rect><rect width="1" height="1" x="24" y="5" fill="hsl(0, 0%, 100%)"></rect><rect width="1" height="1" x="25" y="5" fill="hsl(0, 0%, 100%)"></rect><rect width="1" height="1" x="26" y="5" fill="hsl(0, 0%, 75%)"></rect><rect width="1" height="1" x="27" y="5" fill="hsl(0, 0%, 75%)"></rect><rect width="1" height="1" x="28" y="5" fill="hsl(0, 0%, 100%)"></rect><rect width="1" height="1" x="29" y="5" fill="hsl(0, 0%, 0%)"></rect><rect width="1" height="1" x="20" y="6" fill="hsl(0, 0%, 100%)"></rect><rect width="1" height="1" x="21" y="6" fill="hsl(0, 0%, 0%)"></rect><rect width="1" height="1" x="22" y="6" fill="hsl(0, 0%, 100%)"></rect><rect width="1" height="1" x="23" y="6" fill="hsl(0, 0%, 100%)"></rect><rect width="1" height="1" x="24" y="6" fill="hsl(0, 0%, 100%)"></rect><rect width="1" height="1" x="25" y="6" fill="hsl(0, 0%, 100%)"></rect><rect width="1" height="1" x="26" y="6" fill="hsl(0, 0%, 100%)"></rect><rect width="1" height="1" x="27" y="6" fill="hsl(0, 0%, 100%)"></rect><rect width="1" height="1" x="28" y="6" fill="hsl(0, 0%, 100%)"></rect><rect width="1" height="1" x="29" y="6" fill="hsl(0, 0%, 0%)"></rect><rect width="1" height="1" x="20" y="7" fill="hsl(0, 0%, 90%)"></rect><rect width="1" height="1" x="21" y="7" fill="hsl(0, 0%, 90%)"></rect><rect width="1" height="1" x="22" y="7" fill="hsl(0, 0%, 100%)"></rect><rect width="1" height="1" x="23" y="7" fill="hsl(0, 0%, 100%)"></rect><rect width="1" height="1" x="24" y="7" fill="hsl(0, 0%, 100%)"></rect><rect width="1" height="1" x="25" y="7" fill="hsl(0, 0%, 75%)"></rect><rect width="1" height="1" x="26" y="7" fill="hsl(0, 0%, 75%)"></rect><rect width="1" height="1" x="27" y="7" fill="hsl(0, 0%, 75%)"></rect><rect width="1" height="1" x="28" y="7" fill="hsl(0, 0%, 75%)"></rect><rect width="1" height="1" x="29" y="7" fill="hsl(0, 0%, 0%)"></rect><rect width="1" height="1" x="20" y="8" fill="hsl(0, 0%, 100%)"></rect><rect width="1" height="1" x="21" y="8" fill="hsl(0, 0%, 0%)"></rect><rect width="1" height="1" x="22" y="8" fill="hsl(0, 0%, 90%)"></rect><rect width="1" height="1" x="23" y="8" fill="hsl(0, 0%, 100%)"></rect><rect width="1" height="1" x="24" y="8" fill="hsl(0, 0%, 100%)"></rect><rect width="1" height="1" x="25" y="8" fill="hsl(0, 0%, 100%)"></rect><rect width="1" height="1" x="26" y="8" fill="hsl(0, 0%, 100%)"></rect><rect width="1" height="1" x="27" y="8" fill="hsl(0, 0%, 100%)"></rect><rect width="1" height="1" x="28" y="8" fill="hsl(0, 0%, 90%)"></rect><rect width="1" height="1" x="29" y="8" fill="hsl(0, 0%, 0%)"></rect><rect width="1" height="1" x="20" y="9" fill="hsl(0, 0%, 0%)"></rect><rect width="1" height="1" x="22" y="9" fill="hsl(0, 0%, 0%)"></rect><rect width="1" height="1" x="23" y="9" fill="hsl(0, 0%, 90%)"></rect><rect width="1" height="1" x="24" y="9" fill="hsl(0, 0%, 100%)"></rect><rect width="1" height="1" x="25" y="9" fill="hsl(0, 0%, 100%)"></rect><rect width="1" height="1" x="26" y="9" fill="hsl(0, 0%, 75%)"></rect><rect width="1" height="1" x="27" y="9" fill="hsl(0, 0%, 75%)"></rect><rect width="1" height="1" x="28" y="9" fill="hsl(0, 0%, 90%)"></rect><rect width="1" height="1" x="29" y="9" fill="hsl(0, 0%, 0%)"></rect><rect width="1" height="1" x="20" y="10" fill="hsl(0, 0%, 0%)"></rect><rect width="1" height="1" x="23" y="10" fill="hsl(0, 0%, 0%)"></rect><rect width="1" height="1" x="24" y="10" fill="hsl(0, 0%, 90%)"></rect><rect width="1" height="1" x="25" y="10" fill="hsl(0, 0%, 100%)"></rect><rect width="1" height="1" x="26" y="10" fill="hsl(0, 0%, 100%)"></rect><rect width="1" height="1" x="27" y="10" fill="hsl(0, 0%, 90%)"></rect><rect width="1" height="1" x="28" y="10" fill="hsl(0, 0%, 0%)"></rect><rect width="1" height="1" x="20" y="11" fill="hsl(0, 0%, 0%)"></rect><rect width="1" height="1" x="24" y="11" fill="hsl(0, 0%, 0%)"></rect><rect width="1" height="1" x="25" y="11" fill="hsl(0, 0%, 90%)"></rect><rect width="1" height="1" x="26" y="11" fill="hsl(0, 0%, 90%)"></rect><rect width="1" height="1" x="27" y="11" fill="hsl(0, 0%, 90%)"></rect><rect width="1" height="1" x="28" y="11" fill="hsl(0, 0%, 0%)"></rect><rect width="1" height="1" x="25" y="12" fill="hsl(0, 0%, 0%)"></rect><rect width="1" height="1" x="26" y="12" fill="hsl(0, 0%, 0%)"></rect><rect width="1" height="1" x="27" y="12" fill="hsl(0, 0%, 0%)"></rect>
-->

    <rect width="1" height="1" x="4" y="1" fill="hsl(0, 0%, 0%)"></rect><rect width="1" height="1" x="14" y="1" fill="hsl(0, 0%, 0%)"></rect><rect width="1" height="1" x="4" y="2" fill="hsl(0, 0%, 0%)"></rect><rect width="1" height="1" x="14" y="2" fill="hsl(0, 0%, 0%)"></rect><rect width="1" height="1" x="4" y="3" fill="hsl(0, 0%, 0%)"></rect><rect width="1" height="1" x="12" y="3" fill="hsl(0, 0%, 0%)"></rect><rect width="1" height="1" x="13" y="3" fill="hsl(0, 0%, 0%)"></rect><rect width="1" height="1" x="15" y="3" fill="hsl(0, 0%, 0%)"></rect><rect width="1" height="1" x="16" y="3" fill="hsl(0, 0%, 0%)"></rect><rect width="1" height="1" x="3" y="4" fill="hsl(0, 0%, 0%)"></rect><rect width="1" height="1" x="5" y="4" fill="hsl(0, 0%, 0%)"></rect><rect width="1" height="1" x="14" y="4" fill="hsl(0, 0%, 0%)"></rect><rect width="1" height="1" x="0" y="5" fill="hsl(0, 0%, 0%)"></rect><rect width="1" height="1" x="1" y="5" fill="hsl(0, 0%, 0%)"></rect><rect width="1" height="1" x="2" y="5" fill="hsl(0, 0%, 0%)"></rect><rect width="1" height="1" x="6" y="5" fill="hsl(0, 0%, 0%)"></rect><rect width="1" height="1" x="7" y="5" fill="hsl(0, 0%, 0%)"></rect><rect width="1" height="1" x="8" y="5" fill="hsl(0, 0%, 0%)"></rect><rect width="1" height="1" x="14" y="5" fill="hsl(0, 0%, 0%)"></rect><rect width="1" height="1" x="3" y="6" fill="hsl(0, 0%, 0%)"></rect><rect width="1" height="1" x="5" y="6" fill="hsl(0, 0%, 0%)"></rect><rect width="1" height="1" x="4" y="7" fill="hsl(0, 0%, 0%)"></rect><rect width="1" height="1" x="16" y="7" fill="hsl(0, 0%, 0%)"></rect><rect width="1" height="1" x="4" y="8" fill="hsl(0, 0%, 0%)"></rect><rect width="1" height="1" x="15" y="8" fill="hsl(0, 0%, 0%)"></rect><rect width="1" height="1" x="17" y="8" fill="hsl(0, 0%, 0%)"></rect><rect width="1" height="1" x="4" y="9" fill="hsl(0, 0%, 0%)"></rect><rect width="1" height="1" x="16" y="9" fill="hsl(0, 0%, 0%)"></rect>

</g>
</svg>